<svg width="108" height="108" viewBox="0 0 108 108" fill="none" xmlns="http://www.w3.org/2000/svg">
<rect width="108" height="108" fill="#292931"/>
<g filter="url(#filter0_d_1103_1717)">
<path d="M49.8857 42.7399C49.8857 40.4676 51.7278 38.6256 54 38.6256V38.6256C56.2723 38.6256 58.1143 40.4676 58.1143 42.7399V87.7016H49.8857V42.7399Z" fill="#007BFF" style="mix-blend-mode:lighten"/>
<ellipse cx="54.0001" cy="55.2616" rx="10.2857" ry="10.3975" fill="#FF0089" style="mix-blend-mode:lighten"/>
</g>
<path fill-rule="evenodd" clip-rule="evenodd" d="M54 90C73.8823 90 90 73.8823 90 54C90 34.1177 73.8823 18 54 18C34.1177 18 18 34.1177 18 54C18 73.8823 34.1177 90 54 90ZM54 81.7948C38.6493 81.7948 26.2052 69.3506 26.2052 53.9999C26.2052 38.6492 38.6493 26.2051 54 26.2051C69.3507 26.2051 81.7949 38.6492 81.7949 53.9999C81.7949 69.3506 69.3507 81.7948 54 81.7948Z" fill="#00FFC6" style="mix-blend-mode:lighten"/>
<defs>
<filter id="filter0_d_1103_1717" x="39.7144" y="36.6256" width="28.5715" height="57.076" filterUnits="userSpaceOnUse" color-interpolation-filters="sRGB">
<feFlood flood-opacity="0" result="BackgroundImageFix"/>
<feColorMatrix in="SourceAlpha" type="matrix" values="0 0 0 0 0 0 0 0 0 0 0 0 0 0 0 0 0 0 127 0" result="hardAlpha"/>
<feOffset dy="2"/>
<feGaussianBlur stdDeviation="2"/>
<feColorMatrix type="matrix" values="0 0 0 0 0 0 0 0 0 0 0 0 0 0 0 0 0 0 0.2 0"/>
<feBlend mode="normal" in2="BackgroundImageFix" result="effect1_dropShadow_1103_1717"/>
<feBlend mode="normal" in="SourceGraphic" in2="effect1_dropShadow_1103_1717" result="shape"/>
</filter>
</defs>
</svg>
