<svg width="22" height="22" viewBox="0 0 22 22" fill="none" xmlns="http://www.w3.org/2000/svg">
<path d="M10.9986 0C4.92526 0 6.34765e-06 4.9445 6.34765e-06 11.044C-0.002475 13.3589 0.722588 15.616 2.07272 17.4964C3.42286 19.3767 5.32979 20.7853 7.52401 21.5229C8.07401 21.6246 8.27476 21.2836 8.27476 20.9907C8.27476 20.7281 8.26513 20.0337 8.25963 19.1125C5.20026 19.7794 4.55401 17.6316 4.55401 17.6316C4.05488 16.3556 3.33301 16.016 3.33301 16.016C2.33338 15.3312 3.40726 15.345 3.40726 15.345C4.51138 15.4234 5.09163 16.4835 5.09163 16.4835C6.07338 18.1706 7.66701 17.6839 8.29401 17.4006C8.39301 16.687 8.67763 16.2003 8.99251 15.9239C6.55051 15.6448 3.98201 14.6974 3.98201 10.4665C3.98201 9.26063 4.41101 8.27475 5.11501 7.502C5.00088 7.22287 4.62413 6.0995 5.22226 4.58013C5.22226 4.58013 6.14626 4.28312 8.24726 5.71175C9.14478 5.46647 10.0709 5.34162 11.0014 5.3405C11.9319 5.34235 12.858 5.46765 13.7555 5.71313C15.8551 4.2845 16.7778 4.5815 16.7778 4.5815C17.3773 6.10225 17.0005 7.22425 16.8878 7.50337C17.5931 8.27612 18.018 9.262 18.018 10.4679C18.018 14.7097 15.4468 15.6434 12.9965 15.917C13.3911 16.258 13.7431 16.9317 13.7431 17.9616C13.7431 19.4384 13.7294 20.6291 13.7294 20.9907C13.7294 21.2864 13.9274 21.6301 14.4856 21.5215C16.6777 20.7821 18.5823 19.3731 19.9305 17.4932C21.2788 15.6133 22.0027 13.3574 22 11.044C22 4.9445 17.0748 0 10.9986 0Z" fill="url(#paint0_linear_187_3)"/>
<defs>
<linearGradient id="paint0_linear_187_3" x1="11" y1="0" x2="11" y2="21.542" gradientUnits="userSpaceOnUse">
<stop stop-color="#49B508"/>
<stop offset="1" stop-color="#94C577"/>
</linearGradient>
</defs>
</svg>
