<svg width="22" height="22" viewBox="0 0 22 22" fill="none" xmlns="http://www.w3.org/2000/svg">
<g clip-path="url(#clip0_167_6)">
<path fill-rule="evenodd" clip-rule="evenodd" d="M11.0091 0C4.92135 0 0 4.97795 0 11.1364C0 16.0591 3.15328 20.2261 7.52772 21.7009C8.07463 21.8118 8.27497 21.4613 8.27497 21.1665C8.27497 20.9083 8.25694 20.0234 8.25694 19.1013C5.19447 19.7652 4.55674 17.7738 4.55674 17.7738C4.06458 16.4831 3.33536 16.1514 3.33536 16.1514C2.33302 15.4692 3.40837 15.4692 3.40837 15.4692C4.52024 15.543 5.10366 16.6123 5.10366 16.6123C6.08775 18.3085 7.67352 17.8292 8.31147 17.5342C8.40251 16.8151 8.69434 16.3173 9.00419 16.0408C6.56165 15.7826 3.9918 14.8239 3.9918 10.5462C3.9918 9.32936 4.42897 8.33377 5.12169 7.55947C5.01239 7.28297 4.62953 6.13963 5.23121 4.60936C5.23121 4.60936 6.16076 4.3143 8.25671 5.75248C9.15406 5.50871 10.0795 5.3847 11.0091 5.38366C11.9387 5.38366 12.8862 5.51286 13.7613 5.75248C15.8574 4.3143 16.787 4.60936 16.787 4.60936C17.3887 6.13963 17.0056 7.28297 16.8963 7.55947C17.6073 8.33377 18.0264 9.32936 18.0264 10.5462C18.0264 14.8239 15.4565 15.764 12.9958 16.0408C13.3969 16.391 13.743 17.0547 13.743 18.1057C13.743 19.5991 13.725 20.7977 13.725 21.1663C13.725 21.4613 13.9255 21.8118 14.4722 21.7012C18.8467 20.2259 21.9999 16.0591 21.9999 11.1364C22.018 4.97795 17.0786 0 11.0091 0Z" fill="#24292F"/>
</g>
<defs>
<clipPath id="clip0_167_6">
<rect width="22" height="21.6393" fill="white"/>
</clipPath>
</defs>
</svg>
