<svg width="22" height="22" viewBox="0 0 22 22" fill="none" xmlns="http://www.w3.org/2000/svg">
<g clip-path="url(#clip0_175_8)">
<path d="M11 0C8.08262 0 5.28473 1.15893 3.22183 3.22183C1.15893 5.28473 0 8.08262 0 11C0 13.9174 1.15893 16.7153 3.22183 18.7782C5.28473 20.8411 8.08262 22 11 22C13.9174 22 16.7153 20.8411 18.7782 18.7782C20.8411 16.7153 22 13.9174 22 11C22 8.08262 20.8411 5.28473 18.7782 3.22183C16.7153 1.15893 13.9174 0 11 0Z" fill="#03A9F4"/>
<path d="M17.6 7.21599C17.1149 7.43104 16.5006 7.63289 15.95 7.69999C16.5099 7.36779 17.3982 6.67589 17.6 6.04999C17.077 6.35744 16.131 6.68579 15.5139 6.80459C15.0211 6.28209 14.3182 6.04999 13.5394 6.04999C12.0434 6.04999 11 7.31774 11 8.79999V9.89999C8.80002 9.89999 6.65502 8.22414 5.32017 6.59999C5.08532 6.99654 4.95332 7.46074 4.95332 7.95134C4.95332 8.95179 5.87237 9.96709 6.60002 10.45C6.15617 10.4362 5.31577 10.0974 4.95002 9.89999C4.95002 9.90879 4.95002 9.91979 4.95002 9.93134C4.95002 11.2332 5.86357 12.117 7.10162 12.3634C6.87557 12.4256 6.60002 12.65 5.53962 12.65C5.88392 13.7142 7.61477 14.2769 8.80002 14.3C7.87272 15.0188 6.21942 15.4 4.95002 15.4C4.73057 15.4 4.61177 15.4121 4.40002 15.3873C5.59792 16.1463 7.27102 16.5 8.80002 16.5C13.7814 16.5 16.5 12.6951 16.5 9.14649C16.5 9.02989 16.4962 8.63939 16.4901 8.52499C17.0225 8.14989 17.2381 7.75719 17.6 7.21599Z" fill="white"/>
</g>
<defs>
<clipPath id="clip0_175_8">
<rect width="22" height="22" fill="white"/>
</clipPath>
</defs>
</svg>
