<svg width="22" height="22" viewBox="0 0 22 22" fill="none" xmlns="http://www.w3.org/2000/svg">
<rect width="22" height="22" rx="11" fill="#FFDD11"/>
<path d="M8.75556 17.9437L7.15407 15.6876C7.09562 15.5941 7.10731 15.4655 7.20083 15.407L8.2529 14.6589C9.35174 13.8874 10.0064 12.8119 10.0064 11.2806V4.40702C10.0064 4.29013 10.0999 4.2083 10.2051 4.2083H13.0223V11.2923C13.0223 14.0744 12.2508 15.4538 9.97129 17.0903L8.75556 17.9437Z" fill="white"/>
<path d="M12.9405 4.2083V11.1754C12.9405 13.9575 12.169 15.3369 9.88949 16.9734L8.67377 17.8385L9.25825 18.6568C9.3167 18.7503 9.44529 18.7737 9.5388 18.7035L10.6026 17.9554C11.9586 16.9851 12.8002 16.0967 13.3496 15.0797C13.9107 14.0276 14.1679 12.8236 14.1679 11.187V4.40702C14.1679 4.29013 14.0744 4.2083 13.9692 4.2083H12.9405Z" fill="url(#paint0_linear_196_2)"/>
<defs>
<linearGradient id="paint0_linear_196_2" x1="11.4122" y1="4.20444" x2="11.4122" y2="15.8985" gradientUnits="userSpaceOnUse">
<stop stop-color="#E9FFFF"/>
<stop offset="0.1124" stop-color="#D6F9FD"/>
<stop offset="0.3394" stop-color="#A6E9F8"/>
<stop offset="0.6606" stop-color="#59CFF0"/>
<stop offset="0.9994" stop-color="#00B1E7"/>
</linearGradient>
</defs>
</svg>
