<svg width="22" height="22" viewBox="0 0 22 22" fill="none" xmlns="http://www.w3.org/2000/svg">
<g clip-path="url(#clip0_187_4)">
<path d="M22 11C22 4.92487 17.0751 0 11 0C4.92487 0 0 4.92487 0 11C0 17.0751 4.92487 22 11 22C17.0751 22 22 17.0751 22 11Z" fill="#419FD9"/>
<path d="M22 11C22 4.92487 17.0751 0 11 0C4.92487 0 0 4.92487 0 11C0 17.0751 4.92487 22 11 22C17.0751 22 22 17.0751 22 11Z" fill="url(#paint0_linear_187_4)"/>
<path d="M4.94422 10.7575C8.14307 9.33455 10.2761 8.39644 11.3434 7.94315C14.3907 6.64904 15.0239 6.42423 15.4367 6.41676C15.5274 6.4152 15.7304 6.43816 15.8619 6.54706C15.9729 6.63905 16.0034 6.76331 16.018 6.85048C16.0326 6.9377 16.0508 7.13634 16.0363 7.29153C15.8712 9.06308 15.1567 13.3622 14.7932 15.3464C14.6393 16.186 14.3365 16.4675 14.0433 16.495C13.4061 16.5549 12.9222 16.065 12.305 15.6519C11.3392 15.0056 10.7937 14.6032 9.85618 13.9725C8.77282 13.2435 9.47512 12.8429 10.0925 12.1881C10.2541 12.0168 13.0617 9.40936 13.1161 9.17286C13.1229 9.14325 13.1292 9.03297 13.065 8.97476C13.0009 8.91656 12.9062 8.93645 12.8378 8.95226C12.741 8.97472 11.1981 10.0159 8.20935 12.0758C7.77141 12.3829 7.37477 12.5324 7.01937 12.5246C6.62759 12.516 5.87395 12.2985 5.31369 12.1125C4.62651 11.8844 4.08033 11.7639 4.12789 11.3765C4.15266 11.1748 4.42476 10.9684 4.94422 10.7575Z" fill="white"/>
</g>
<defs>
<linearGradient id="paint0_linear_187_4" x1="11" y1="0" x2="11" y2="21.8368" gradientUnits="userSpaceOnUse">
<stop stop-color="#2AABEE"/>
<stop offset="1" stop-color="#229ED9"/>
</linearGradient>
<clipPath id="clip0_187_4">
<rect width="22" height="22" fill="white"/>
</clipPath>
</defs>
</svg>
