<svg width="22" height="22" viewBox="0 0 22 22" fill="none" xmlns="http://www.w3.org/2000/svg">
<g clip-path="url(#clip0_194_2)">
<path d="M22 11C22 17.0749 17.0749 22 11 22C4.92508 22 0 17.0749 0 11C0 4.92508 4.92508 0 11 0C17.0749 0 22 4.92508 22 11Z" fill="#FF6154"/>
<path d="M12.4665 11H9.35002V7.7H12.4665C13.3779 7.7 14.1165 8.43863 14.1165 9.35C14.1165 10.2614 13.3779 11 12.4665 11ZM12.4665 5.5H7.15002V16.5H9.35002V13.2H12.4665C14.5931 13.2 16.3165 11.4761 16.3165 9.35C16.3165 7.22348 14.5931 5.5 12.4665 5.5Z" fill="white"/>
</g>
<defs>
<clipPath id="clip0_194_2">
<rect width="22" height="22" fill="white"/>
</clipPath>
</defs>
</svg>
